<mxfile host="app.diagrams.net" modified="2024-07-18T00:34:06.383Z" agent="Mozilla/5.0 (Windows NT 10.0; Win64; x64) AppleWebKit/537.36 (KHTML, like Gecko) Chrome/126.0.0.0 Safari/537.36" version="24.7.1" etag="Gb0i4Wm9zICkRlz7Z9gh" type="github">
  <diagram name="PÃ¡gina-1" id="GTPLz2d8ZcAknZ1TD9cJ">
    <mxGraphModel>
      <root>
        <mxCell id="0" />
        <mxCell id="1" parent="0" />
      </root>
    </mxGraphModel>
  </diagram>
</mxfile>
